<mxfile host="app.diagrams.net" modified="2021-01-26T11:07:36.653Z" agent="5.0 (Windows NT 10.0; Win64; x64) AppleWebKit/537.36 (KHTML, like Gecko) Chrome/87.0.4280.141 Safari/537.36" etag="aUkIfgr9Wks9GxtZzI7G" version="14.2.7" type="github">
  <diagram id="RtHO7GpxdCiPIvidPPBW" name="Page-1">
    <mxGraphModel dx="684" dy="468" grid="1" gridSize="10" guides="0" tooltips="1" connect="0" arrows="0" fold="1" page="1" pageScale="1" pageWidth="827" pageHeight="1169" math="1" shadow="0">
      <root>
        <mxCell id="0" />
        <mxCell id="1" parent="0" />
        <mxCell id="eq9NkoFH_JwomYph_lc1-9" value="" style="rounded=1;whiteSpace=wrap;html=1;labelBackgroundColor=none;glass=0;fillColor=none;" vertex="1" parent="1">
          <mxGeometry x="190" y="60" width="180" height="210" as="geometry" />
        </mxCell>
        <mxCell id="gSE59t6PXgKEy8AZ4u2M-23" value="WordNet" style="rounded=1;whiteSpace=wrap;html=1;" parent="1" vertex="1">
          <mxGeometry x="200" y="120" width="80" height="30" as="geometry" />
        </mxCell>
        <mxCell id="gSE59t6PXgKEy8AZ4u2M-24" value="Embedding space" style="rounded=1;whiteSpace=wrap;html=1;" parent="1" vertex="1">
          <mxGeometry x="200" y="190" width="80" height="30" as="geometry" />
        </mxCell>
        <mxCell id="gSE59t6PXgKEy8AZ4u2M-25" value="&lt;b&gt;Candidate set for \(w_i\)&lt;/b&gt;" style="rounded=1;whiteSpace=wrap;html=1;rotation=90;" parent="1" vertex="1">
          <mxGeometry x="270" y="150" width="150" height="30" as="geometry" />
        </mxCell>
        <mxCell id="eq9NkoFH_JwomYph_lc1-3" value="" style="shadow=0;dashed=0;align=center;verticalAlign=middle;shape=mxgraph.arrows2.arrow;dy=0.67;dx=20;notch=0;labelBackgroundColor=none;labelBorderColor=none;html=1;" vertex="1" parent="1">
          <mxGeometry x="130" y="145" width="50" height="35" as="geometry" />
        </mxCell>
        <mxCell id="eq9NkoFH_JwomYph_lc1-4" value="&lt;span&gt;\(w_i\)&lt;/span&gt;" style="text;html=1;strokeColor=none;fillColor=none;align=center;verticalAlign=middle;whiteSpace=wrap;rounded=0;labelBackgroundColor=none;" vertex="1" parent="1">
          <mxGeometry x="140" y="129" width="40" height="20" as="geometry" />
        </mxCell>
        <mxCell id="eq9NkoFH_JwomYph_lc1-5" value="&lt;span&gt;\(w^*_i\)&lt;/span&gt;" style="text;html=1;strokeColor=none;fillColor=none;align=center;verticalAlign=middle;whiteSpace=wrap;rounded=0;labelBackgroundColor=none;" vertex="1" parent="1">
          <mxGeometry x="390" y="130" width="40" height="20" as="geometry" />
        </mxCell>
        <mxCell id="eq9NkoFH_JwomYph_lc1-6" value="" style="shadow=0;dashed=0;align=center;verticalAlign=middle;shape=mxgraph.arrows2.arrow;dy=0.67;dx=20;notch=0;labelBackgroundColor=none;labelBorderColor=none;html=1;" vertex="1" parent="1">
          <mxGeometry x="390" y="150" width="50" height="35" as="geometry" />
        </mxCell>
        <mxCell id="eq9NkoFH_JwomYph_lc1-10" value="&lt;b&gt;&lt;font style=&quot;font-size: 15px&quot;&gt;Candidata set and substitute word&lt;/font&gt;&lt;/b&gt;" style="text;html=1;strokeColor=none;fillColor=none;align=center;verticalAlign=middle;whiteSpace=wrap;rounded=0;glass=0;labelBackgroundColor=none;" vertex="1" parent="1">
          <mxGeometry x="200" y="280" width="140" height="40" as="geometry" />
        </mxCell>
        <mxCell id="eq9NkoFH_JwomYph_lc1-12" value="" style="shadow=0;dashed=0;align=center;verticalAlign=middle;shape=mxgraph.arrows2.arrow;dy=0.62;dx=12.67;notch=0;labelBackgroundColor=none;labelBorderColor=none;html=1;" vertex="1" parent="1">
          <mxGeometry x="290" y="200" width="30" height="20" as="geometry" />
        </mxCell>
        <mxCell id="eq9NkoFH_JwomYph_lc1-13" value="" style="shadow=0;dashed=0;align=center;verticalAlign=middle;shape=mxgraph.arrows2.arrow;dy=0.62;dx=12.67;notch=0;labelBackgroundColor=none;labelBorderColor=none;html=1;" vertex="1" parent="1">
          <mxGeometry x="290" y="120" width="30" height="20" as="geometry" />
        </mxCell>
      </root>
    </mxGraphModel>
  </diagram>
</mxfile>
